HIERARCHY
ROOT pelvis
{
  OFFSET 0 100 0
  CHANNELS 6 Xposition Yposition Zposition Zrotation Xrotation Yrotation
  JOINT pelvis_right_femur
  {
    OFFSET -10.78128 -3.44521 -0.5502486
    CHANNELS 3 Zrotation Xrotation Yrotation
    JOINT right_femur_tibia
    {
      OFFSET -0.8047443 -44.0398 -0.1307829
      CHANNELS 3 Zrotation Xrotation Yrotation
      JOINT right_tibia_foot
      {
        OFFSET 3.006224 -47.83518 -5
        CHANNELS 3 Zrotation Xrotation Yrotation
        End Site
        {
          OFFSET 0 -5 15
        }
      }
    }
  }
  JOINT pelvis_left_femur
  {
    OFFSET 10.78128 -3.44521 -0.5502486
    CHANNELS 3 Zrotation Xrotation Yrotation
    JOINT left_femur_tibia
    {
      OFFSET 0.8047443 -44.0398 -0.1307829
      CHANNELS 3 Zrotation Xrotation Yrotation
      JOINT left_tibia_foot
      {
        OFFSET -4.370144 -48.10324 -4.275266
        CHANNELS 3 Zrotation Xrotation Yrotation
        End Site
        {
          OFFSET 0 -5 15
        }
      }
    }
  }
  JOINT pelvis_spine1
  {
    OFFSET 0 6.468898 -3.129235
    CHANNELS 3 Zrotation Xrotation Yrotation
    JOINT spine1
    {
      OFFSET 0 23.15396 4.99043
      CHANNELS 3 Zrotation Xrotation Yrotation
      JOINT spine2
      {
        OFFSET 0 20.79997 -5.064912
        CHANNELS 3 Zrotation Xrotation Yrotation
        JOINT neck
        {
          OFFSET 0 14.38658 9.616178
          CHANNELS 3 Zrotation Xrotation Yrotation
          End Site
          {
            OFFSET 0 20 0
          }
        }
      }
      JOINT right_manubrium
      {
        OFFSET -5.722621 16.35077 3.967754
        CHANNELS 3 Zrotation Xrotation Yrotation
        JOINT right_clavicle
        {
          OFFSET -13.16364 1.694482 -4.693211
          CHANNELS 3 Zrotation Xrotation Yrotation
          JOINT right_humerus
          {
            OFFSET -28.5034 -0.3100689 -2.792744
            CHANNELS 3 Zrotation Xrotation Yrotation
            JOINT right_radius
            {
              OFFSET -25.15693 0.02248979 -1.271978
              CHANNELS 3 Zrotation Xrotation Yrotation
              End Site
              {
                OFFSET -15 0 0
              }
            }
          }
        }
      }
      JOINT left_manubrium
      {
        OFFSET 5.722621 16.35077 3.967754
        CHANNELS 3 Zrotation Xrotation Yrotation
        JOINT left_clavicle
        {
          OFFSET 13.16364 1.694482 -4.693211
          CHANNELS 3 Zrotation Xrotation Yrotation
          JOINT left_humerus
          {
            OFFSET 29.39168 -1.063119 -2.237045
            CHANNELS 3 Zrotation Xrotation Yrotation
            JOINT left_radius
            {
              OFFSET 24.59957 -0.9528479 0.9047498
              CHANNELS 3 Zrotation Xrotation Yrotation
              End Site
              {
                OFFSET 15 -0 -0
              }
            }
          }
        }
      }
    }
  }
}
MOTION
Frames: 11
Frame Time: 0.0416666666667
0 103.5113 0 1.538639 -0.6421615 0.06391797 3.128112 -16.76199 9.684014 -0 41.19217 -0 -5.193387 -19.25199 -3.513997 -8.132413 10.51425 -23.33281 -0 5.379983 -0 16.03625 -12.14961 28.95208 -4.867338 -4.16481 4.699319 3.391879 10.04547 -7.839402 1.235741 22.4588 5.90055 1.7422 -24.75122 9.362518 6.410906 -20.1227 12.22395 86.01696 36.95759 -18.06815 -0 0 14.34656 -5.217674 6.526318 5.362602 4.775592 -18.72903 -1.346189 -90.08075 21.54937 18.30395 0 0 -17.02835 15.07733 13.51769 -3.573659
0.3484923 103.476 1.67251 1.432144 -0.2901866 0.1229816 3.352014 -17.95799 9.340582 -0 39.62388 -0 -5.143961 -18.31679 -3.269603 -8.064258 10.83151 -22.99342 -0 5.34636 -0 15.87024 -12.62521 28.52575 -4.771054 -4.069957 4.661878 3.431014 10.07346 -7.908397 1.213675 22.29967 5.998792 1.828784 -24.93496 9.396318 6.319568 -20.08507 12.19214 86.1931 37.01302 -18.3992 -0 0 14.17853 -5.443747 6.713598 5.430099 4.907412 -18.97082 -1.418102 -89.87405 21.49365 18.15811 0 0 -17.85523 15.06491 13.34816 -3.521195
0.05524633 102.8482 7.24946 -1.340456 0.335901 0.1054204 6.430635 -33.63653 2.151401 -0 10.27847 -0 -7.566996 -2.377008 -2.952592 -4.740047 19.76258 -13.52666 -0 22.26701 -0 0.06444978 -19.75393 15.3566 -1.191695 -0.3646112 1.884074 2.506601 8.252607 -7.795545 2.352213 22.36487 6.091901 2.66722 -22.99085 9.384877 2.145605 -14.74227 9.616484 91.27675 31.55266 -23.52081 -0 0 6.845866 -11.20608 10.32639 5.070043 6.78414 -22.37768 -3.605338 -85.15981 27.03621 9.474281 0 0 -27.63798 7.404668 14.27033 4.905727
0.07040539 102.4641 11.92554 -1.599658 3.60729 0.3528554 7.863096 -35.13932 4.541863 -0 14.10546 -0 -6.697598 -2.704254 -0.8585898 -5.364648 16.71807 -15.6843 -0 15.62215 -0 4.941894 -20.01314 18.21223 -1.482051 -1.781344 3.067289 3.215375 9.47722 -8.513602 1.509474 20.66556 7.2344 3.431542 -25.90265 9.88003 4.375404 -17.1151 10.69304 89.23208 35.50282 -23.45453 -0 0 10.29626 -9.647211 10.83553 4.957577 7.326917 -22.68703 -2.439224 -88.45115 24.15276 15.53441 0 0 -25.99404 11.48278 14.04119 0.9922863
0.1958686 102.0142 16.30696 -2.702827 4.58158 0.7586867 9.634705 -34.28423 6.476568 -0 17.25787 -0 -6.684241 -2.959824 -0.5772576 -4.365404 13.80448 -15.80968 -0 14.48384 -0 1.238751 -21.24532 17.12191 -0.3773512 -1.68619 3.134337 3.12202 9.050151 -8.395497 1.378588 20.19569 7.707956 3.781445 -26.58787 10.14199 5.588227 -17.37065 10.93296 86.99477 35.0933 -21.94776 -0 0 12.64483 -9.132126 11.45435 4.640656 7.737516 -21.92852 -1.472927 -93.10311 25.78603 20.77046 0 0 -20.10502 9.213996 16.15711 4.327278
0.2810039 101.5613 21.08361 -2.762791 4.342871 0.9581846 9.645501 -34.5459 5.665697 -0 15.39749 -0 -7.043597 -2.269582 -0.5481051 -4.317145 14.64422 -14.94577 -0 18.07351 -0 1.381834 -20.11117 16.38806 -0.3083236 -1.642181 2.874928 3.230139 9.202728 -8.465169 1.353116 20.36166 7.590807 3.694939 -26.20734 9.978323 5.28224 -16.83787 10.86996 87.63038 35.03816 -22.48015 -0 0 11.3763 -9.548908 11.56575 4.756161 7.537495 -22.18608 -1.870864 -91.81386 24.99691 19.11702 0 0 -21.0681 10.17018 15.58942 2.907919
0.3514176 101.2359 26.17856 -2.97964 4.115796 1.111304 9.829665 -34.12083 5.053608 -0 14.42849 -0 -7.422486 -1.838922 -0.466489 -4.079984 14.6401 -14.08131 -0 21.45474 -0 0.7208722 -19.0222 15.38724 -0.006575064 -1.566504 2.633201 3.286455 9.275327 -8.460889 1.261373 20.51613 7.56787 3.659435 -25.86319 9.800244 5.191927 -16.4103 10.90238 87.79677 34.68566 -22.5905 -0 0 10.57714 -10.02806 11.71304 4.94169 7.343003 -22.24044 -2.174601 -91.54884 24.46926 18.60454 0 0 -20.63859 10.50397 15.45622 2.324912
0.4581059 100.9552 31.36434 -3.096026 4.078967 1.239488 9.979084 -33.6938 4.720989 -0 14.06648 -0 -7.557143 -1.469295 -0.1432851 -4.005506 14.05359 -13.50844 -0 22.42763 -0 1.103464 -18.38694 15.27277 0.1582085 -1.743219 2.652121 3.353131 9.595159 -8.527741 1.089038 20.46047 7.677541 3.714338 -25.7876 9.685258 5.225969 -16.505 11.09255 87.62708 34.24174 -22.51575 -0 0 10.4999 -10.6232 11.85112 5.202301 7.451094 -22.5077 -2.296517 -91.71408 23.11856 18.76014 0 0 -19.84991 11.69731 15.36626 0.8158259
0.5583569 100.7711 36.80489 -3.173639 3.675012 1.273302 9.987405 -32.74128 3.980685 -0 13.32345 -0 -7.966387 -1.059504 -0.0008978375 -3.869771 13.74646 -12.64523 -0 25.72231 -0 0.9839413 -17.10423 14.622 0.3795515 -1.822804 2.53841 3.374268 9.869796 -8.536946 0.9499031 20.61918 7.673072 3.706648 -25.38312 9.445447 5.059045 -16.285 11.20601 87.85644 33.66662 -22.65299 -0 0 9.79441 -11.37771 11.9685 5.493636 7.293607 -22.74658 -2.679016 -91.43649 22.07965 18.3071 0 0 -19.43779 12.44884 15.19209 -0.2819514
0.637453 100.7176 42.50726 -3.132173 3.061603 1.185747 9.89986 -31.50448 3.120892 -0 12.45757 -0 -8.465954 -0.5240801 0.1265373 -3.805429 13.41822 -11.68001 -0 29.5625 -0 1.291364 -15.61942 14.21298 0.5196834 -1.992266 2.498822 3.35972 10.3208 -8.56957 0.8172474 20.79559 7.620916 3.722115 -24.84353 9.125362 4.766647 -16.12322 11.33287 88.25256 32.94148 -22.90512 -0 0 9.023736 -12.31479 12.08322 5.763628 7.172283 -23.19133 -3.165344 -90.93996 20.61071 17.58863 0 0 -19.26333 13.62407 14.89941 -1.957986
0.6834491 100.8152 48.46501 -3.001973 2.165592 0.9661344 9.703114 -29.63865 2.082867 -0 11.69893 -0 -9.100978 0.1069474 0.2321459 -3.743367 12.80037 -10.56626 -0 33.90105 -0 1.652368 -13.90233 13.79105 0.6690523 -2.247105 2.531021 3.276414 10.92927 -8.587081 0.6666591 21.02042 7.527844 3.731379 -24.1681 8.696442 4.306487 -16.09903 11.51625 88.81173 31.73041 -23.20081 -0 0 8.238594 -13.58169 12.161 6.17536 6.996683 -23.79263 -3.810786 -90.46962 18.92929 16.96218 0 0 -19.11756 14.76298 14.64682 -3.586066
